<?xml version="1.0" encoding="utf-8"?>
<!-- Generator: Adobe Illustrator 24.0.1, SVG Export Plug-In . SVG Version: 6.00 Build 0)  -->
<svg version="1.1" id="katman_1" xmlns="http://www.w3.org/2000/svg" xmlns:xlink="http://www.w3.org/1999/xlink" x="0px" y="0px"
	 viewBox="0 0 1500 1500" style="enable-background:new 0 0 1500 1500;" xml:space="preserve">
<style type="text/css">
	.st0{fill:#FFFFFF;}
</style>
<g transform="translate(0.000000,1500.000000) scale(0.100000,-0.100000)">
	<path class="st0" d="M7025.1,14731.4c-131-5-471-32-695-55c-775-78-1521-264-2015-503c-282-136-490-287-621-451
		c-122-152-184-310-184-470c0-71,4-90,28-136c53-103,171-154,286-124c119,31,177,103,192,238c14,124,87,220,261,338
		c507,345,1527,589,2718,650c257,13,980,7,1235-10c960-66,1817-263,2338-537c106-55,209-121,250-158l24-21l-454-5
		c-410-5-456-7-489-23c-195-97-188-375,10-466c32-14,112-16,690-19c445-2,671,1,706,8c71,15,139,62,173,119l27,46l3,690
		c2,622,1,694-14,734c-76,199-355,217-459,29l-30-53l-3-272l-3-273l-46,31c-25,17-110,64-189,105c-506,256-1238,446-2058,534
		c-378,40-599,51-1091,54C7340.1,14733.4,7075.1,14733.4,7025.1,14731.4z"/>
	<path class="st0" d="M1067.1,11976.4c-363-53-693-278-884-602c-69-116-103-199-142-336l-26-96l-3-3400c-3-3734-7-3487,57-3682
		c142-436,492-748,946-845l110-23h2380h2380l115,23c525,106,907,503,1002,1042c11,61,13,608,13,2905v2830l-27,55
		c-23,46-195,223-1050,1077c-795,794-1033,1027-1068,1042c-45,20-58,21-1895,20C1958.1,11985.4,1099.1,11981.4,1067.1,11976.4z
		 M4513.1,11025.4c4-383,7-475,21-533c119-507,474-864,971-978c82-18,131-20,548-24l457-5l-3-2686c-2-2558-3-2690-20-2747
		c-76-252-259-441-504-521l-88-29h-2390h-2390l-80,28c-248,87-432,282-498,528l-22,84v3355v3355l23,80c39,134,95,228,197,330
		c120,120,257,193,405,214c30,5,800,9,1712,10l1656,1L4513.1,11025.4z M6118.1,9989.4c-18-2-134-2-258,1c-258,5-293,12-440,84
		c-81,39-109,60-185,137c-101,102-158,197-196,326c-19,66-22,105-26,335l-5,260l571-570C6135.1,10007.4,6149.1,9992.4,6118.1,9989.4
		z"/>
	<path class="st0" d="M1652.1,9961.4c-159-79-186-287-54-406c71-64,60-63,667-63c454,0,556,3,585,14c126,52,187,182,148,315
		c-16,55-101,140-154,155c-26,7-225,11-590,11h-550L1652.1,9961.4z"/>
	<path class="st0" d="M1652.1,8461.4c-160-79-187-286-54-406c67-60,84-63,417-63c237,0,307,3,335,14c126,52,187,182,148,315
		c-16,55-99,138-154,154c-28,8-135,12-341,12h-299L1652.1,8461.4z"/>
	<path class="st0" d="M3152.1,8461.4c-157-78-187-280-60-401c75-73-3-68,1138-71c722-2,1040,0,1076,8c73,16,137,59,171,117
		c24,41,28,58,28,123c-1,113-46,184-145,229c-44,20-60,21-1101,21h-1055L3152.1,8461.4z"/>
	<path class="st0" d="M1725.1,6988.4c-97-17-173-83-199-172c-20-66-20-82,0-148c21-72,90-141,159-162c42-12,211-14,1090-14
		c1038,0,1040,0,1086,21c198,92,198,366,0,458c-46,21-50,21-1071,22C2226.1,6994.4,1747.1,6992.4,1725.1,6988.4z"/>
	<path class="st0" d="M4717.1,6987.4c-75-13-142-63-180-135c-16-30-21-58-21-110c0-82,22-134,80-185c74-64,78-65,409-65
		c349,0,364,3,438,85c90,100,90,229,0,330c-72,81-87,84-403,86C4889.1,6995.4,4743.1,6992.4,4717.1,6987.4z"/>
	<path class="st0" d="M1725.1,5488.4c-97-17-173-83-199-172c-20-66-20-82,0-148c21-72,90-141,159-162c41-11,148-14,590-14
		c527,0,541,1,585,21c25,11,60,35,78,53c55,55,67,87,67,176c0,111-39,175-139,228c-41,22-45,22-571,24
		C2004.1,5494.4,1747.1,5492.4,1725.1,5488.4z"/>
	<path class="st0" d="M3717.1,5487.4c-75-13-142-64-180-135c-29-56-29-164,1-221c27-53,94-111,146-127c31-9,232-12,831-12
		c901,0,847-5,928,85c90,100,90,229,0,330c-81,90-23,85-903,87C4114.1,5494.4,3743.1,5491.4,3717.1,5487.4z"/>
	<path class="st0" d="M9030.1,11970.4c-454-79-845-431-975-877c-53-184-50,6-50-3601c0-3194,1-3375,18-3465c48-255,157-468,334-651
		c183-190,408-311,678-366c85-17,211-18,2470-18c2248,0,2385,1,2470,18c264,52,485,168,665,347c167,166,269,346,337,592l28,103
		l3,2869l2,2869l-25,55c-22,48-156,186-1048,1078c-797,798-1032,1028-1067,1043c-45,20-60,21-1900,20
		C9374.1,11985.4,9103.1,11983.4,9030.1,11970.4z M12512.1,11015.4c4-472,4-473,30-569c50-183,114-319,218-458
		c204-272,535-459,868-491c59-5,281-10,495-10h387l-3-2677c-2-2491-4-2682-20-2740c-71-262-258-457-522-545l-70-23h-2390h-2390
		l-77,26c-249,85-431,272-500,514l-23,80v3380v3380l28,80c97,275,320,469,593,514c27,5,797,9,1711,10l1662,1L12512.1,11015.4z
		 M14133.1,9988.4c-10-2-128-1-263,2c-216,4-253,7-315,27c-256,81-444,267-516,510c-20,67-23,102-26,340l-4,265l571-570
		C13989.1,10153.4,14145.1,9991.4,14133.1,9988.4z"/>
	<path class="st0" d="M10405.1,7713.4c-97-45-152-139-142-244c12-134,109-221,245-222c73,0,114,15,166,60c73,65,100,157,72,251
		C10704.1,7705.4,10543.1,7778.4,10405.1,7713.4z"/>
	<path class="st0" d="M11420.1,7724.4c-54-17-133-102-149-160c-47-166,66-316,237-317c73,0,114,15,166,60c73,65,100,157,72,251
		c-31,107-127,180-235,178C11480.1,7735.4,11439.1,7730.4,11420.1,7724.4z"/>
	<path class="st0" d="M12420.1,7724.4c-53-17-133-102-149-159c-32-115,10-226,109-285c47-29,63-33,122-33c79,0,119,14,172,60
		c131,116,102,325-56,404C12561.1,7739.4,12485.1,7744.4,12420.1,7724.4z"/>
	<path class="st0" d="M3662.1,1982.4c-57-25-100-65-127-118l-25-51v-690c0-655,1-693,19-733c41-89,126-142,229-143
		c107,0,192,52,233,142c23,50,24,67,29,314l5,261l110-61c61-34,164-87,230-118c564-263,1429-450,2395-518c247-18,1053-24,1310-11
		c917,48,1699,189,2315,418c645,240,1011,540,1105,907c38,151,22,269-48,341c-53,54-103,75-187,75c-59,0-78-5-122-30
		c-28-16-64-45-78-64c-31-41-55-113-55-166c0-94-124-242-287-343c-488-301-1268-507-2278-602c-281-26-551-37-905-37
		c-776,1-1433,67-2069,208c-530,118-1014,312-1255,503l-38,30l464,3l465,3l49,30c155,96,155,334,0,430l-49,30l-701,2
		C3807.1,1996.4,3690.1,1994.4,3662.1,1982.4z"/>
</g>
</svg>
