<?xml version="1.0" standalone="no"?>
<!DOCTYPE svg PUBLIC "-//W3C//DTD SVG 20010904//EN"
 "http://www.w3.org/TR/2001/REC-SVG-20010904/DTD/svg10.dtd">
<svg version="1.0" xmlns="http://www.w3.org/2000/svg"
 width="1500.000000pt" height="1500.000000pt" viewBox="0 0 1500.000000 1500.000000"
 preserveAspectRatio="xMidYMid meet">
<metadata>
Created by potrace 1.16, written by Peter Selinger 2001-2019
</metadata>
<g transform="translate(0.000000,1500.000000) scale(0.100000,-0.100000)"
fill="#000000" stroke="none">
<path d="M7015 14744 c-131 -5 -471 -32 -695 -55 -775 -78 -1521 -264 -2015
-503 -282 -136 -490 -287 -621 -451 -122 -152 -184 -310 -184 -470 0 -71 4
-90 28 -136 53 -103 171 -154 286 -124 119 31 177 103 192 238 14 124 87 220
261 338 507 345 1527 589 2718 650 257 13 980 7 1235 -10 960 -66 1817 -263
2338 -537 106 -55 209 -121 250 -158 l24 -21 -454 -5 c-410 -5 -456 -7 -489
-23 -195 -97 -188 -375 10 -466 32 -14 112 -16 690 -19 445 -2 671 1 706 8 71
15 139 62 173 119 l27 46 3 690 c2 622 1 694 -14 734 -76 199 -355 217 -459
29 l-30 -53 -3 -272 -3 -273 -46 31 c-25 17 -110 64 -189 105 -506 256 -1238
446 -2058 534 -378 40 -599 51 -1091 54 -275 2 -540 2 -590 0z"/>
<path d="M1057 11989 c-363 -53 -693 -278 -884 -602 -69 -116 -103 -199 -142
-336 l-26 -96 -3 -3400 c-3 -3734 -7 -3487 57 -3682 142 -436 492 -748 946
-845 l110 -23 2380 0 2380 0 115 23 c525 106 907 503 1002 1042 11 61 13 608
13 2905 l0 2830 -27 55 c-23 46 -195 223 -1050 1077 -795 794 -1033 1027
-1068 1042 -45 20 -58 21 -1895 20 -1017 -1 -1876 -5 -1908 -10z m3446 -951
c4 -383 7 -475 21 -533 119 -507 474 -864 971 -978 82 -18 131 -20 548 -24
l457 -5 -3 -2686 c-2 -2558 -3 -2690 -20 -2747 -76 -252 -259 -441 -504 -521
l-88 -29 -2390 0 -2390 0 -80 28 c-248 87 -432 282 -498 528 l-22 84 0 3355 0
3355 23 80 c39 134 95 228 197 330 120 120 257 193 405 214 30 5 800 9 1712
10 l1656 1 5 -462z m1605 -1036 c-18 -2 -134 -2 -258 1 -258 5 -293 12 -440
84 -81 39 -109 60 -185 137 -101 102 -158 197 -196 326 -19 66 -22 105 -26
335 l-5 260 571 -570 c556 -555 570 -570 539 -573z"/>
<path d="M1642 9974 c-159 -79 -186 -287 -54 -406 71 -64 60 -63 667 -63 454
0 556 3 585 14 126 52 187 182 148 315 -16 55 -101 140 -154 155 -26 7 -225
11 -590 11 l-550 0 -52 -26z"/>
<path d="M1642 8474 c-160 -79 -187 -286 -54 -406 67 -60 84 -63 417 -63 237
0 307 3 335 14 126 52 187 182 148 315 -16 55 -99 138 -154 154 -28 8 -135 12
-341 12 l-299 0 -52 -26z"/>
<path d="M3142 8474 c-157 -78 -187 -280 -60 -401 75 -73 -3 -68 1138 -71 722
-2 1040 0 1076 8 73 16 137 59 171 117 24 41 28 58 28 123 -1 113 -46 184
-145 229 -44 20 -60 21 -1101 21 l-1055 0 -52 -26z"/>
<path d="M1715 7001 c-97 -17 -173 -83 -199 -172 -20 -66 -20 -82 0 -148 21
-72 90 -141 159 -162 42 -12 211 -14 1090 -14 1038 0 1040 0 1086 21 198 92
198 366 0 458 -46 21 -50 21 -1071 22 -564 1 -1043 -1 -1065 -5z"/>
<path d="M4707 7000 c-75 -13 -142 -63 -180 -135 -16 -30 -21 -58 -21 -110 0
-82 22 -134 80 -185 74 -64 78 -65 409 -65 349 0 364 3 438 85 90 100 90 229
0 330 -72 81 -87 84 -403 86 -151 2 -297 -1 -323 -6z"/>
<path d="M1715 5501 c-97 -17 -173 -83 -199 -172 -20 -66 -20 -82 0 -148 21
-72 90 -141 159 -162 41 -11 148 -14 590 -14 527 0 541 1 585 21 25 11 60 35
78 53 55 55 67 87 67 176 0 111 -39 175 -139 228 -41 22 -45 22 -571 24 -291
0 -548 -2 -570 -6z"/>
<path d="M3707 5500 c-75 -13 -142 -64 -180 -135 -29 -56 -29 -164 1 -221 27
-53 94 -111 146 -127 31 -9 232 -12 831 -12 901 0 847 -5 928 85 90 100 90
229 0 330 -81 90 -23 85 -903 87 -426 0 -797 -3 -823 -7z"/>
<path d="M9020 11983 c-454 -79 -845 -431 -975 -877 -53 -184 -50 6 -50 -3601
0 -3194 1 -3375 18 -3465 48 -255 157 -468 334 -651 183 -190 408 -311 678
-366 85 -17 211 -18 2470 -18 2248 0 2385 1 2470 18 264 52 485 168 665 347
167 166 269 346 337 592 l28 103 3 2869 2 2869 -25 55 c-22 48 -156 186 -1048
1078 -797 798 -1032 1028 -1067 1043 -45 20 -60 21 -1900 20 -1596 -1 -1867
-3 -1940 -16z m3482 -955 c4 -472 4 -473 30 -569 50 -183 114 -319 218 -458
204 -272 535 -459 868 -491 59 -5 281 -10 495 -10 l387 0 -3 -2677 c-2 -2491
-4 -2682 -20 -2740 -71 -262 -258 -457 -522 -545 l-70 -23 -2390 0 -2390 0
-77 26 c-249 85 -431 272 -500 514 l-23 80 0 3380 0 3380 28 80 c97 275 320
469 593 514 27 5 797 9 1711 10 l1662 1 3 -472z m1621 -1027 c-10 -2 -128 -1
-263 2 -216 4 -253 7 -315 27 -256 81 -444 267 -516 510 -20 67 -23 102 -26
340 l-4 265 571 -570 c409 -409 565 -571 553 -574z"/>
<path d="M10395 7726 c-97 -45 -152 -139 -142 -244 12 -134 109 -221 245 -222
73 0 114 15 166 60 73 65 100 157 72 251 -42 147 -203 220 -341 155z"/>
<path d="M11410 7737 c-54 -17 -133 -102 -149 -160 -47 -166 66 -316 237 -317
73 0 114 15 166 60 73 65 100 157 72 251 -31 107 -127 180 -235 178 -31 -1
-72 -6 -91 -12z"/>
<path d="M12410 7737 c-53 -17 -133 -102 -149 -159 -32 -115 10 -226 109 -285
47 -29 63 -33 122 -33 79 0 119 14 172 60 131 116 102 325 -56 404 -57 28
-133 33 -198 13z"/>
<path d="M3652 1995 c-57 -25 -100 -65 -127 -118 l-25 -51 0 -690 c0 -655 1
-693 19 -733 41 -89 126 -142 229 -143 107 0 192 52 233 142 23 50 24 67 29
314 l5 261 110 -61 c61 -34 164 -87 230 -118 564 -263 1429 -450 2395 -518
247 -18 1053 -24 1310 -11 917 48 1699 189 2315 418 645 240 1011 540 1105
907 38 151 22 269 -48 341 -53 54 -103 75 -187 75 -59 0 -78 -5 -122 -30 -28
-16 -64 -45 -78 -64 -31 -41 -55 -113 -55 -166 0 -94 -124 -242 -287 -343
-488 -301 -1268 -507 -2278 -602 -281 -26 -551 -37 -905 -37 -776 1 -1433 67
-2069 208 -530 118 -1014 312 -1255 503 l-38 30 464 3 465 3 49 30 c155 96
155 334 0 430 l-49 30 -701 2 c-589 2 -706 0 -734 -12z"/>
</g>
</svg>
